<svg xmlns="http://www.w3.org/2000/svg" width="16" height="16"><title>cloned-cats</title><g><title>background</title><rect id="canvas_background" width="802" height="602" x="-1" y="-1" fill="none"/></g><g><title>Layer 1</title><g id="svg_27"><ellipse id="svg_24" cx="7.414" cy="8.484" fill="#dcc9ff" stroke="#000" stroke-opacity="null" stroke-width="0" rx="4.733" ry="4.733"/><path id="svg_25" fill="#dcc9ff" fill-opacity="null" stroke="#000" stroke-opacity="null" stroke-width="0" d="m3.84274,6.09966l0.29594,-4.82986l2.23653,4.265"/><path id="svg_26" fill="#dcc9ff" fill-opacity="null" stroke="#000" stroke-opacity="null" stroke-width="0" d="m8.40222,5.86972l0.29594,-4.82986l2.23653,4.265" transform="rotate(16 9.668456077575684,3.454792737960814)"/></g><g id="svg_23"><ellipse id="svg_20" cx="7.987" cy="9.104" fill="#bc96ff" stroke="#000" stroke-opacity="null" stroke-width="0" rx="4.733" ry="4.733"/><path id="svg_21" fill="#bc96ff" fill-opacity="null" stroke="#000" stroke-opacity="null" stroke-width="0" d="m4.41526,6.71989l0.29594,-4.82986l2.23653,4.265"/><path id="svg_22" fill="#bc96ff" fill-opacity="null" stroke="#000" stroke-opacity="null" stroke-width="0" d="m8.97474,6.48995l0.29594,-4.82986l2.23653,4.265" transform="rotate(16 10.240974426269537,4.075020313262941)"/></g><g id="svg_19"><ellipse id="svg_12" cx="8.941" cy="9.486" fill="#a065ff" stroke="#000" stroke-opacity="null" stroke-width="0" rx="4.733" ry="4.733"/><path id="svg_14" fill="#a065ff" fill-opacity="null" stroke="#000" stroke-opacity="null" stroke-width="0" d="m5.36946,7.10157l0.29594,-4.82986l2.23653,4.265"/><path id="svg_15" fill="#a065ff" fill-opacity="null" stroke="#000" stroke-opacity="null" stroke-width="0" d="m9.92894,6.87163l0.29594,-4.82986l2.23653,4.265" transform="rotate(16 11.19517517089844,4.456694602966303)"/></g></g></svg>